<svg width="75" height="1083" viewBox="0 0 75 1083" fill="none" xmlns="http://www.w3.org/2000/svg">
<circle cx="37" cy="1078" r="5" fill="black"/>
<path d="M36.755 2L48.937 25.6087C64.6068 55.9766 59.749 92.8852 36.755 118.164V118.164V118.164C14.581 148.758 13.3897 189.805 33.752 221.634L36.755 226.328L37.2088 226.964C59.7817 258.6 59.5989 301.125 36.755 332.565V332.565V332.565C14.7998 359.79 12.7052 398.001 31.5531 427.462L36.755 435.594V435.594C59.2063 462.914 60.0818 502.039 38.8752 530.336L36.755 533.165V533.165C14.7156 562.226 13.3346 602.008 33.3058 632.527L36.755 637.798V637.798C59.4342 665.967 60.8652 705.703 40.2709 735.43L36.755 740.505V740.505C14.5349 770.775 12.8776 811.491 32.564 843.467L36.755 850.274L48.3785 873.783C64.576 906.542 60.0247 945.76 36.755 973.939V973.939V973.939C14.7046 1005.13 14.8635 1047.18 36.755 1078.48V1078.48" stroke="white"/>
<path d="M36.755 973.939V973.939C14.7046 1005.13 14.8635 1047.18 36.755 1078.48V1078.48" stroke="black"/>
<ellipse cx="37" cy="5.65081" rx="5" ry="5.65081" fill="white"/>
</svg>
