<?xml version="1.0" encoding="UTF-8"?>
<svg width="91px" height="66px" viewBox="0 0 91 66" version="1.1" xmlns="http://www.w3.org/2000/svg" xmlns:xlink="http://www.w3.org/1999/xlink">
    <!-- Generator: Sketch 63.1 (92452) - https://sketch.com -->
    <title>“</title>
    <desc>Created with Sketch.</desc>
    <g id="Page-1" stroke="none" stroke-width="1" fill="none" fill-rule="evenodd">
        <path d="M71.9946289,65.4326172 C74.519043,65.4326172 76.8904622,65.0118815 79.1088867,64.1704102 C81.3273112,63.3289388 83.2397461,62.1623535 84.8461914,60.6706543 C86.4526367,59.1789551 87.7339681,57.4577637 88.6901855,55.5070801 C89.646403,53.5563965 90.1245117,51.4335938 90.1245117,49.1386719 C90.1245117,46.84375 89.7611491,44.759196 89.0344238,42.8850098 C88.3076986,41.0108236 87.3132324,39.4043783 86.0510254,38.0656738 C84.7888184,36.7269694 83.3353678,35.6751302 81.6906738,34.9101562 C80.0459798,34.1451823 78.3056641,33.7626953 76.4697266,33.7626953 C75.2457682,33.7626953 74.1556803,33.9348145 73.1994629,34.2790527 C72.2432454,34.623291 71.3826497,35.0249023 70.6176758,35.4838867 C69.8527018,35.9428711 69.1259766,36.3444824 68.4375,36.6887207 C67.7490234,37.032959 67.0605469,37.2050781 66.3720703,37.2050781 C66.2190755,37.2050781 66.1043294,36.8608398 66.027832,36.1723633 C65.9513346,35.4838867 65.9130859,34.7189128 65.9130859,33.8774414 C65.9130859,31.5060221 66.5441895,29.1537272 67.8063965,26.8205566 C69.0686035,24.4873861 70.7897949,22.3072103 72.9699707,20.2800293 C75.1501465,18.2528483 77.7128092,16.4360352 80.657959,14.8295898 C83.6031087,13.2231445 86.7586263,11.9609375 90.1245117,11.0429688 L90.1245117,11.0429688 L90.1245117,0.601074219 C84.6166992,0.983561198 79.4340007,2.20751953 74.576416,4.27294922 C69.7188314,6.33837891 65.4541016,9.07316081 61.7822266,12.4772949 C58.1103516,15.881429 55.2034505,19.878418 53.0615234,24.4682617 C50.9195964,29.0581055 49.8486328,34.0304362 49.8486328,39.3852539 C49.8486328,42.9806315 50.4223633,46.3656413 51.5698242,49.5402832 C52.7172852,52.7149251 54.3046061,55.4879557 56.3317871,57.859375 C58.3589681,60.2307943 60.711263,62.0858561 63.3886719,63.4245605 C66.0660807,64.763265 68.9347331,65.4326172 71.9946289,65.4326172 Z M23.112793,65.4326172 C25.637207,65.4326172 28.0086263,65.0118815 30.2270508,64.1704102 C32.4454753,63.3289388 34.3770345,62.1623535 36.0217285,60.6706543 C37.6664225,59.1789551 38.9477539,57.4577637 39.8657227,55.5070801 C40.7836914,53.5563965 41.2426758,51.4335938 41.2426758,49.1386719 C41.2426758,46.84375 40.8793132,44.759196 40.1525879,42.8850098 C39.4258626,41.0108236 38.4313965,39.4043783 37.1691895,38.0656738 C35.9069824,36.7269694 34.4535319,35.6751302 32.8088379,34.9101562 C31.1641439,34.1451823 29.3855794,33.7626953 27.4731445,33.7626953 C26.3256836,33.7626953 25.2738444,33.9348145 24.317627,34.2790527 C23.3614095,34.623291 22.5008138,35.0249023 21.7358398,35.4838867 C20.9708659,35.9428711 20.263265,36.3444824 19.6130371,36.6887207 C18.9628092,37.032959 18.3317057,37.2050781 17.7197266,37.2050781 C17.4902344,37.2050781 17.3181152,36.8608398 17.2033691,36.1723633 C17.088623,35.4838867 17.03125,34.7189128 17.03125,33.8774414 C17.03125,31.5060221 17.6623535,29.1537272 18.9245605,26.8205566 C20.1867676,24.4873861 21.907959,22.3072103 24.0881348,20.2800293 C26.2683105,18.2528483 28.8309733,16.4360352 31.776123,14.8295898 C34.7212728,13.2231445 37.8767904,11.9609375 41.2426758,11.0429688 L41.2426758,11.0429688 L41.2426758,0.601074219 C35.8113607,0.983561198 30.6477865,2.20751953 25.7519531,4.27294922 C20.8561198,6.33837891 16.5722656,9.07316081 12.9003906,12.4772949 C9.22851562,15.881429 6.30249023,19.878418 4.12231445,24.4682617 C1.94213867,29.0581055 0.852050781,34.0304362 0.852050781,39.3852539 C0.852050781,42.9806315 1.4449056,46.3656413 2.63061523,49.5402832 C3.81632487,52.7149251 5.40364583,55.4879557 7.39257812,57.859375 C9.38151042,60.2307943 11.7338053,62.0858561 14.4494629,63.4245605 C17.1651204,64.763265 20.0528971,65.4326172 23.112793,65.4326172 Z" id="“" fill="#EEEEEE" fill-rule="nonzero"></path>
    </g>
</svg>