<svg xmlns="http://www.w3.org/2000/svg" viewBox="0 0 36.35 693.72"><defs><style>.cls-1,.cls-2{fill:none;stroke:gray;stroke-linecap:round;stroke-linejoin:round;}.cls-2{stroke-dasharray:4.97 11.92;}.cls-3{fill:gray;}</style></defs><title>zig-zag</title><g id="Layer_2" data-name="Layer 2"><g id="Layer_1-2" data-name="Layer 1"><path class="cls-1" d="M30.5.5c0,.85,0,1.68,0,2.5"/><path class="cls-2" d="M29.22,14.84C23.49,44.5.5,49.22.5,87.15c0,43.32,30,43.32,30,86.65S.5,217.13.5,260.45s30,43.33,30,86.65S.5,390.43.5,433.75s30,43.33,30,86.66S.5,563.73.5,607.06c0,38.23,23.35,42.73,28.85,73"/><path class="cls-1" d="M30.15,686c.08.81.14,1.64.19,2.49"/><polygon class="cls-3" points="36.35 687.43 24.21 687.87 30.5 693.72 36.35 687.43"/></g></g></svg>